Title                            : The Road
Year                             : 2009
Genre                            : Adventure | Drama | Thriller
iMDB URL                         : http://www.imdb.com/title/tt0898367/
Awards                           : Nominated for BAFTA Film Award. Another 1 win & 10 nominations

Complete name                    : The.Road.2009.BRRIP.H264-ZEKTORM.mp4
Format                           : MPEG-4
Format profile                   : Base Media
Codec ID                         : isom
File size                        : 1.56 GiB
Duration                         : 1h 51mn
Overall bit rate                 : 2009 Kbps
Subtitles                        : English (Format: srt)

Video
ID                               : 1
Format                           : AVC
Format/Info                      : Advanced Video Codec
Format profile                   : High@L3.0
Format settings, CABAC           : Yes
Codec ID                         : avc1
Codec ID/Info                    : Advanced Video Coding
Duration                         : 1h 51mn
Bit rate mode                    : Variable
Bit rate                         : 1719 Kbps
Width                            : 1280 pixels
Height                           : 544 pixels
Display aspect ratio             : 2.35
Frame rate mode                  : Constant
Frame rate                       : 23.976 fps
Resolution                       : 24 bits
Colorimetry                      : 4:2:0
Scan type                        : Progressive
Bits/(Pixel*Frame)               : 0.103
Stream size                      : 1.34 GiB (86%)
Title                            : Video
Writing library                  : x264

Audio #1
ID                               : 2
Format                           : AAC
Format/Info                      : Advanced Audio Codec
Format version                   : Version 4
Format profile                   : LC
Format settings, SBR             : Yes
Format settings, PS              : No
Codec ID                         : 40
Duration                         : 1h 51mn
Bit rate mode                    : Variable
Bit rate                         : 207 Kbps
Maximum bit rate                 : 255 Kbps
Channel(s)                       : 6 channels
Channel positions                : Front: L C R, Rear: L R, LFE
Sampling rate                    : 48.0 KHz
Resolution                       : 16 bits
Stream size                      : 165 MiB (10%)
Title                            : English
Language                         : English

Audio #2
ID                               : 3
Format                           : AAC
Format/Info                      : Advanced Audio Codec
Format version                   : Version 4
Format profile                   : LC
Format settings, SBR             : Yes
Format settings, PS              : No
Codec ID                         : 40
Duration                         : 1h 51mn
Bit rate mode                    : Variable
Bit rate                         : 79.7 Kbps
Maximum bit rate                 : 101 Kbps
Channel(s)                       : 2 channels
Channel positions                : L R
Sampling rate                    : 48.0 KHz
Resolution                       : 16 bits
Stream size                      : 63.5 MiB (4%)
Title                            : English
Language                         : English
